<svg width="483" height="79" viewBox="0 0 483 79" fill="none" xmlns="http://www.w3.org/2000/svg">
<path d="M34.25 39.28C33.4393 37.7867 32.266 36.656 30.73 35.888C29.2367 35.0773 27.466 34.672 25.418 34.672C21.8767 34.672 19.0393 35.8453 16.906 38.192C14.7727 40.496 13.706 43.5893 13.706 47.472C13.706 51.6107 14.8153 54.8533 17.034 57.2C19.2953 59.504 22.3887 60.656 26.314 60.656C29.002 60.656 31.2633 59.9733 33.098 58.608C34.9753 57.2427 36.3407 55.28 37.194 52.72H23.306V44.656H47.114V54.832C46.3033 57.5627 44.9167 60.1013 42.954 62.448C41.034 64.7947 38.5807 66.6933 35.594 68.144C32.6073 69.5947 29.2367 70.32 25.482 70.32C21.0447 70.32 17.0767 69.36 13.578 67.44C10.122 65.4773 7.41266 62.768 5.44999 59.312C3.52999 55.856 2.56999 51.9093 2.56999 47.472C2.56999 43.0347 3.52999 39.088 5.44999 35.632C7.41266 32.1333 10.122 29.424 13.578 27.504C17.034 25.5413 20.9807 24.56 25.418 24.56C30.794 24.56 35.3167 25.8613 38.986 28.464C42.698 31.0667 45.1513 34.672 46.346 39.28H34.25ZM88.44 34.288V70H77.496V65.136C76.3867 66.7147 74.872 67.9947 72.952 68.976C71.0747 69.9147 68.984 70.384 66.68 70.384C63.9493 70.384 61.5387 69.7867 59.448 68.592C57.3573 67.3547 55.736 65.584 54.584 63.28C53.432 60.976 52.856 58.2667 52.856 55.152V34.288H63.736V53.68C63.736 56.0693 64.3547 57.9253 65.592 59.248C66.8293 60.5707 68.4933 61.232 70.584 61.232C72.7173 61.232 74.4027 60.5707 75.64 59.248C76.8773 57.9253 77.496 56.0693 77.496 53.68V34.288H88.44ZM101.805 30.576C99.885 30.576 98.3063 30.0213 97.069 28.912C95.8743 27.76 95.277 26.352 95.277 24.688C95.277 22.9813 95.8743 21.5733 97.069 20.464C98.3063 19.312 99.885 18.736 101.805 18.736C103.682 18.736 105.218 19.312 106.413 20.464C107.65 21.5733 108.269 22.9813 108.269 24.688C108.269 26.352 107.65 27.76 106.413 28.912C105.218 30.0213 103.682 30.576 101.805 30.576ZM107.245 34.288V70H96.301V34.288H107.245ZM135.08 60.72V70H129.512C125.544 70 122.451 69.04 120.232 67.12C118.013 65.1573 116.904 61.9787 116.904 57.584V43.376H112.552V34.288H116.904V25.584H127.848V34.288H135.016V43.376H127.848V57.712C127.848 58.7787 128.104 59.5467 128.616 60.016C129.128 60.4853 129.981 60.72 131.176 60.72H135.08ZM139 52.08C139 48.4107 139.683 45.1893 141.048 42.416C142.456 39.6427 144.355 37.5093 146.744 36.016C149.133 34.5227 151.8 33.776 154.744 33.776C157.261 33.776 159.459 34.288 161.336 35.312C163.256 36.336 164.728 37.68 165.752 39.344V34.288H176.696V70H165.752V64.944C164.685 66.608 163.192 67.952 161.272 68.976C159.395 70 157.197 70.512 154.68 70.512C151.779 70.512 149.133 69.7653 146.744 68.272C144.355 66.736 142.456 64.5813 141.048 61.808C139.683 58.992 139 55.7493 139 52.08ZM165.752 52.144C165.752 49.4133 164.984 47.2587 163.448 45.68C161.955 44.1013 160.12 43.312 157.944 43.312C155.768 43.312 153.912 44.1013 152.376 45.68C150.883 47.216 150.136 49.3493 150.136 52.08C150.136 54.8107 150.883 56.9867 152.376 58.608C153.912 60.1867 155.768 60.976 157.944 60.976C160.12 60.976 161.955 60.1867 163.448 58.608C164.984 57.0293 165.752 54.8747 165.752 52.144ZM195.557 40.24C196.837 38.2773 198.437 36.7413 200.357 35.632C202.277 34.48 204.411 33.904 206.757 33.904V45.488H203.749C201.019 45.488 198.971 46.0853 197.605 47.28C196.24 48.432 195.557 50.48 195.557 53.424V70H184.613V34.288H195.557V40.24ZM279.932 70.448C276.647 70.448 273.703 69.9147 271.1 68.848C268.497 67.7813 266.407 66.2027 264.828 64.112C263.292 62.0213 262.481 59.504 262.396 56.56H274.044C274.215 58.224 274.791 59.504 275.772 60.4C276.753 61.2533 278.033 61.68 279.612 61.68C281.233 61.68 282.513 61.3173 283.452 60.592C284.391 59.824 284.86 58.7787 284.86 57.456C284.86 56.3467 284.476 55.4293 283.708 54.704C282.983 53.9787 282.065 53.3813 280.956 52.912C279.889 52.4427 278.353 51.9093 276.348 51.312C273.447 50.416 271.079 49.52 269.244 48.624C267.409 47.728 265.831 46.4053 264.508 44.656C263.185 42.9067 262.524 40.624 262.524 37.808C262.524 33.6267 264.039 30.3627 267.068 28.016C270.097 25.6267 274.044 24.432 278.908 24.432C283.857 24.432 287.847 25.6267 290.876 28.016C293.905 30.3627 295.527 33.648 295.74 37.872H283.9C283.815 36.4213 283.281 35.2907 282.3 34.48C281.319 33.6267 280.06 33.2 278.524 33.2C277.201 33.2 276.135 33.5627 275.324 34.288C274.513 34.9707 274.108 35.9733 274.108 37.296C274.108 38.7467 274.791 39.8773 276.156 40.688C277.521 41.4987 279.655 42.3733 282.556 43.312C285.457 44.2933 287.804 45.232 289.596 46.128C291.431 47.024 293.009 48.3253 294.332 50.032C295.655 51.7387 296.316 53.936 296.316 56.624C296.316 59.184 295.655 61.5093 294.332 63.6C293.052 65.6907 291.175 67.3547 288.7 68.592C286.225 69.8293 283.303 70.448 279.932 70.448ZM354.315 34.288L344.651 70H332.555L326.923 46.832L321.099 70H309.067L299.339 34.288H310.283L315.339 59.824L321.355 34.288H332.939L339.019 59.696L344.011 34.288H354.315ZM363.992 30.576C362.072 30.576 360.494 30.0213 359.256 28.912C358.062 27.76 357.464 26.352 357.464 24.688C357.464 22.9813 358.062 21.5733 359.256 20.464C360.494 19.312 362.072 18.736 363.992 18.736C365.87 18.736 367.406 19.312 368.6 20.464C369.838 21.5733 370.456 22.9813 370.456 24.688C370.456 26.352 369.838 27.76 368.6 28.912C367.406 30.0213 365.87 30.576 363.992 30.576ZM369.432 34.288V70H358.488V34.288H369.432ZM397.267 60.72V70H391.699C387.731 70 384.638 69.04 382.419 67.12C380.201 65.1573 379.091 61.9787 379.091 57.584V43.376H374.739V34.288H379.091V25.584H390.035V34.288H397.203V43.376H390.035V57.712C390.035 58.7787 390.291 59.5467 390.803 60.016C391.315 60.4853 392.169 60.72 393.363 60.72H397.267ZM401.187 52.144C401.187 48.432 401.934 45.1893 403.427 42.416C404.963 39.6427 407.075 37.5093 409.763 36.016C412.494 34.5227 415.609 33.776 419.107 33.776C423.587 33.776 427.321 34.9493 430.307 37.296C433.337 39.6427 435.321 42.9493 436.259 47.216H424.611C423.63 44.4853 421.731 43.12 418.915 43.12C416.91 43.12 415.31 43.9093 414.115 45.488C412.921 47.024 412.323 49.2427 412.323 52.144C412.323 55.0453 412.921 57.2853 414.115 58.864C415.31 60.4 416.91 61.168 418.915 61.168C421.731 61.168 423.63 59.8027 424.611 57.072H436.259C435.321 61.2533 433.337 64.5387 430.307 66.928C427.278 69.3173 423.545 70.512 419.107 70.512C415.609 70.512 412.494 69.7653 409.763 68.272C407.075 66.7787 404.963 64.6453 403.427 61.872C401.934 59.0987 401.187 55.856 401.187 52.144ZM464.065 33.904C468.161 33.904 471.447 35.2693 473.921 38C476.396 40.688 477.633 44.4 477.633 49.136V70H466.753V50.608C466.753 48.2187 466.135 46.3627 464.897 45.04C463.66 43.7173 461.996 43.056 459.905 43.056C457.815 43.056 456.151 43.7173 454.913 45.04C453.676 46.3627 453.057 48.2187 453.057 50.608V70H442.113V22.64H453.057V39.088C454.167 37.5093 455.681 36.2507 457.601 35.312C459.521 34.3733 461.676 33.904 464.065 33.904Z" fill="#111111"/>
<path d="M223.636 61.04H242.964V70H211.22V61.68L230.42 34.032H211.22V25.072H242.964V33.392L223.636 61.04Z" fill="#BB1A34"/>
</svg>
