<svg width="433" height="79" viewBox="0 0 433 79" fill="none" xmlns="http://www.w3.org/2000/svg">
<path d="M33.792 39.28C32.9813 37.7867 31.808 36.656 30.272 35.888C28.7787 35.0773 27.008 34.672 24.96 34.672C21.4187 34.672 18.5813 35.8453 16.448 38.192C14.3147 40.496 13.248 43.5893 13.248 47.472C13.248 51.6107 14.3573 54.8533 16.576 57.2C18.8373 59.504 21.9307 60.656 25.856 60.656C28.544 60.656 30.8053 59.9733 32.64 58.608C34.5173 57.2427 35.8827 55.28 36.736 52.72H22.848V44.656H46.656V54.832C45.8453 57.5627 44.4587 60.1013 42.496 62.448C40.576 64.7947 38.1227 66.6933 35.136 68.144C32.1493 69.5947 28.7787 70.32 25.024 70.32C20.5867 70.32 16.6187 69.36 13.12 67.44C9.664 65.4773 6.95467 62.768 4.992 59.312C3.072 55.856 2.112 51.9093 2.112 47.472C2.112 43.0347 3.072 39.088 4.992 35.632C6.95467 32.1333 9.664 29.424 13.12 27.504C16.576 25.5413 20.5227 24.56 24.96 24.56C30.336 24.56 34.8587 25.8613 38.528 28.464C42.24 31.0667 44.6933 34.672 45.888 39.28H33.792ZM87.982 34.288V70H77.038V65.136C75.9287 66.7147 74.414 67.9947 72.494 68.976C70.6167 69.9147 68.526 70.384 66.222 70.384C63.4913 70.384 61.0807 69.7867 58.99 68.592C56.8993 67.3547 55.278 65.584 54.126 63.28C52.974 60.976 52.398 58.2667 52.398 55.152V34.288H63.278V53.68C63.278 56.0693 63.8967 57.9253 65.134 59.248C66.3713 60.5707 68.0353 61.232 70.126 61.232C72.2593 61.232 73.9447 60.5707 75.182 59.248C76.4193 57.9253 77.038 56.0693 77.038 53.68V34.288H87.982ZM101.347 30.576C99.427 30.576 97.8483 30.0213 96.611 28.912C95.4163 27.76 94.819 26.352 94.819 24.688C94.819 22.9813 95.4163 21.5733 96.611 20.464C97.8483 19.312 99.427 18.736 101.347 18.736C103.224 18.736 104.76 19.312 105.955 20.464C107.192 21.5733 107.811 22.9813 107.811 24.688C107.811 26.352 107.192 27.76 105.955 28.912C104.76 30.0213 103.224 30.576 101.347 30.576ZM106.787 34.288V70H95.843V34.288H106.787ZM134.622 60.72V70H129.054C125.086 70 121.993 69.04 119.774 67.12C117.555 65.1573 116.446 61.9787 116.446 57.584V43.376H112.094V34.288H116.446V25.584H127.39V34.288H134.558V43.376H127.39V57.712C127.39 58.7787 127.646 59.5467 128.158 60.016C128.67 60.4853 129.523 60.72 130.718 60.72H134.622ZM138.542 52.08C138.542 48.4107 139.225 45.1893 140.59 42.416C141.998 39.6427 143.897 37.5093 146.286 36.016C148.675 34.5227 151.342 33.776 154.286 33.776C156.803 33.776 159.001 34.288 160.878 35.312C162.798 36.336 164.27 37.68 165.294 39.344V34.288H176.238V70H165.294V64.944C164.227 66.608 162.734 67.952 160.814 68.976C158.937 70 156.739 70.512 154.222 70.512C151.321 70.512 148.675 69.7653 146.286 68.272C143.897 66.736 141.998 64.5813 140.59 61.808C139.225 58.992 138.542 55.7493 138.542 52.08ZM165.294 52.144C165.294 49.4133 164.526 47.2587 162.99 45.68C161.497 44.1013 159.662 43.312 157.486 43.312C155.31 43.312 153.454 44.1013 151.918 45.68C150.425 47.216 149.678 49.3493 149.678 52.08C149.678 54.8107 150.425 56.9867 151.918 58.608C153.454 60.1867 155.31 60.976 157.486 60.976C159.662 60.976 161.497 60.1867 162.99 58.608C164.526 57.0293 165.294 54.8747 165.294 52.144ZM195.1 40.24C196.38 38.2773 197.98 36.7413 199.9 35.632C201.82 34.48 203.953 33.904 206.3 33.904V45.488H203.292C200.561 45.488 198.513 46.0853 197.148 47.28C195.782 48.432 195.1 50.48 195.1 53.424V70H184.156V34.288H195.1V40.24ZM303.482 34.288L293.818 70H281.722L276.09 46.832L270.266 70H258.234L248.506 34.288H259.45L264.506 59.824L270.522 34.288H282.106L288.186 59.696L293.178 34.288H303.482ZM313.16 30.576C311.24 30.576 309.661 30.0213 308.424 28.912C307.229 27.76 306.632 26.352 306.632 24.688C306.632 22.9813 307.229 21.5733 308.424 20.464C309.661 19.312 311.24 18.736 313.16 18.736C315.037 18.736 316.573 19.312 317.768 20.464C319.005 21.5733 319.624 22.9813 319.624 24.688C319.624 26.352 319.005 27.76 317.768 28.912C316.573 30.0213 315.037 30.576 313.16 30.576ZM318.6 34.288V70H307.656V34.288H318.6ZM346.435 60.72V70H340.867C336.899 70 333.805 69.04 331.587 67.12C329.368 65.1573 328.259 61.9787 328.259 57.584V43.376H323.907V34.288H328.259V25.584H339.203V34.288H346.371V43.376H339.203V57.712C339.203 58.7787 339.459 59.5467 339.971 60.016C340.483 60.4853 341.336 60.72 342.531 60.72H346.435ZM350.355 52.144C350.355 48.432 351.101 45.1893 352.595 42.416C354.131 39.6427 356.243 37.5093 358.931 36.016C361.661 34.5227 364.776 33.776 368.275 33.776C372.755 33.776 376.488 34.9493 379.475 37.296C382.504 39.6427 384.488 42.9493 385.427 47.216H373.779C372.797 44.4853 370.899 43.12 368.083 43.12C366.077 43.12 364.477 43.9093 363.283 45.488C362.088 47.024 361.491 49.2427 361.491 52.144C361.491 55.0453 362.088 57.2853 363.283 58.864C364.477 60.4 366.077 61.168 368.083 61.168C370.899 61.168 372.797 59.8027 373.779 57.072H385.427C384.488 61.2533 382.504 64.5387 379.475 66.928C376.445 69.3173 372.712 70.512 368.275 70.512C364.776 70.512 361.661 69.7653 358.931 68.272C356.243 66.7787 354.131 64.6453 352.595 61.872C351.101 59.0987 350.355 55.856 350.355 52.144ZM413.233 33.904C417.329 33.904 420.614 35.2693 423.089 38C425.563 40.688 426.801 44.4 426.801 49.136V70H415.921V50.608C415.921 48.2187 415.302 46.3627 414.065 45.04C412.827 43.7173 411.163 43.056 409.073 43.056C406.982 43.056 405.318 43.7173 404.081 45.04C402.843 46.3627 402.225 48.2187 402.225 50.608V70H391.281V22.64H402.225V39.088C403.334 37.5093 404.849 36.2507 406.769 35.312C408.689 34.3733 410.843 33.904 413.233 33.904Z" fill="#111111"/>
<path d="M231.384 61.04H212.056V70H243.8V61.68L224.6 34.032H243.8V25.072H212.056V33.392L231.384 61.04Z" fill="#BB1A34"/>
</svg>
