<svg width="308" height="84" viewBox="0 0 308 84" fill="none" xmlns="http://www.w3.org/2000/svg">
<path d="M56.1 83.1V75C53.8333 77.6 50.9 79.5667 47.3 80.9C43.7667 82.1667 40.2 82.8 36.6 82.8C29.3333 82.8 22.9667 81.1667 17.5 77.9C12.0333 74.5667 7.76667 69.8333 4.7 63.7C1.63333 57.5 0.1 50.1667 0.1 41.7C0.1 33.5667 1.63333 26.4667 4.7 20.4C7.76667 14.2667 12.0333 9.53333 17.5 6.2C22.9667 2.8 29.3 1.1 36.5 1.1C40.7 1.1 44.6667 1.6 48.4 2.6C52.1333 3.53333 55.4333 4.8 58.3 6.39999C61.2333 7.99999 63.4333 9.83333 64.9 11.9L62.1 29H55.5C55.1 25.4 54.3667 22.5333 53.3 20.4C52.3 18.2667 51.1667 16.6667 49.9 15.6C48.3 14.2 46.3 13.2 43.9 12.6C41.5667 11.9333 38.8667 11.6 35.8 11.6C31.7333 11.6 28.0333 12.7 24.7 14.9C21.4333 17.1 18.8333 20.4333 16.9 24.9C14.9667 29.3667 14 34.9667 14 41.7C14 47.8333 15.0667 53.1333 17.2 57.6C19.3333 62.0667 22.2 65.5 25.8 67.9C29.4 70.3 33.4 71.5 37.8 71.5C41 71.5 44.0333 70.7667 46.9 69.3C49.8333 67.7667 52.2333 65.5667 54.1 62.7C55.9667 59.7667 56.9 56.2667 56.9 52.2C56.9 51.8667 56.9 51.5 56.9 51.1C56.9 50.7 56.8667 50.3 56.8 49.9H38.2L36.2 41.3L69 37.5L67 81.1L56.1 83.1ZM127.818 82C123.751 79.8 121.118 76.9667 119.918 73.5C118.985 75.3 117.518 76.8333 115.518 78.1C113.518 79.3667 111.218 80.3333 108.618 81C106.085 81.7333 103.485 82.1 100.818 82.1C95.3513 82.1 90.9846 80.3333 87.718 76.8C84.518 73.2 82.7513 68.6667 82.418 63.2L80.418 23.8L94.618 25.5V60.9C94.618 64.3 95.518 66.8667 97.318 68.6C99.118 70.3333 101.551 71.2 104.618 71.2C107.485 71.2 110.085 70.4333 112.418 68.9C114.818 67.3667 116.451 65.1333 117.318 62.2V23.8L131.518 25.5L129.818 63.2V63.8C129.818 66.2667 130.451 68.8333 131.718 71.5C133.051 74.1667 134.951 76.6333 137.418 78.9L127.818 82ZM162.152 9.19999C162.152 11.5333 161.319 13.5333 159.652 15.2C157.986 16.8667 155.986 17.7 153.652 17.7C151.319 17.7 149.319 16.8667 147.652 15.2C145.986 13.5333 145.152 11.5333 145.152 9.19999C145.152 6.86666 145.986 4.86666 147.652 3.19999C149.319 1.53333 151.319 0.699997 153.652 0.699997C155.986 0.699997 157.986 1.53333 159.652 3.19999C161.319 4.86666 162.152 6.86666 162.152 9.19999ZM146.552 82.4V23.8L160.852 25.5L158.852 81L146.552 82.4ZM200.556 82.1C192.823 82.1 187.223 80.5667 183.756 77.5C180.29 74.4333 178.556 70 178.556 64.2V34.8H170.956L168.956 27.1L178.556 26.1V8.1L192.656 10.1L192.156 24.7L202.156 23.7V34.8H191.756L190.756 62.4V63.4C190.756 66.6667 191.59 69.2667 193.256 71.2C194.99 73.0667 198.09 74 202.556 74L200.556 82.1ZM254.919 82C253.252 80.6667 251.952 79.4 251.019 78.2C250.152 76.9333 249.419 75.4333 248.819 73.7C247.619 75.7667 245.919 77.4333 243.719 78.7C241.519 79.9 239.052 80.7667 236.319 81.3C233.652 81.8333 230.919 82.1 228.119 82.1C222.452 82.1 218.185 80.8 215.319 78.2C212.452 75.6 210.952 71.9667 210.819 67.3V66.9C210.819 61.5667 212.519 57.3667 215.919 54.3C219.319 51.2333 224.052 49.0333 230.119 47.7C234.252 46.7667 237.719 45.7667 240.519 44.7C243.385 43.5667 244.819 42.3 244.819 40.9C244.819 36.4333 241.319 34.2 234.319 34.2C230.785 34.2 227.352 34.9 224.019 36.3C220.685 37.6333 217.952 39.2333 215.819 41.1L211.819 33.9C214.152 30.8333 217.352 28.4667 221.419 26.8C225.552 25.1333 230.219 24.3 235.419 24.3C243.152 24.3 248.952 25.7333 252.819 28.6C256.752 31.4 258.719 35.8333 258.719 41.9V64.6C258.719 67.2 259.219 69.7667 260.219 72.3C261.219 74.8333 262.652 77.0333 264.519 78.9L254.919 82ZM224.619 65.9C224.685 67.7 225.219 69.2333 226.219 70.5C227.219 71.7667 228.719 72.4 230.719 72.4C233.652 72.4 236.519 71.5667 239.319 69.9C242.119 68.2333 244.052 66.1333 245.119 63.6C245.452 62.8667 245.652 61.9667 245.719 60.9C245.852 59.7667 245.919 58.6 245.919 57.4C245.919 55.6667 245.852 54.1 245.719 52.7C245.585 51.3 245.519 50.6 245.519 50.6C244.052 51.7333 242.152 52.7 239.819 53.5C237.552 54.3 235.152 55.0667 232.619 55.8C230.152 56.4667 228.185 57.5667 226.719 59.1C225.319 60.6333 224.619 62.6667 224.619 65.2V65.9ZM275.975 82.4L273.975 23.8L288.175 25.5V31.2C289.442 29.6 290.708 28.3 291.975 27.3C293.308 26.3 294.975 25.5667 296.975 25.1C298.975 24.6333 301.608 24.3667 304.875 24.3L307.175 36.5C304.975 36.1 302.975 35.9 301.175 35.9C294.442 35.9 290.108 38.6 288.175 44V81L275.975 82.4Z" fill="black"/>
</svg>
